<svg id="visual" viewBox="0 0 900 600" width="900" height="600" xmlns="http://www.w3.org/2000/svg" xmlns:xlink="http://www.w3.org/1999/xlink" version="1.1"><path d="M0 375L21.5 374.8C43 374.7 86 374.3 128.8 398.2C171.7 422 214.3 470 257.2 487.7C300 505.3 343 492.7 385.8 470.5C428.7 448.3 471.3 416.7 514.2 411.2C557 405.7 600 426.3 642.8 428.8C685.7 431.3 728.3 415.7 771.2 423.7C814 431.7 857 463.3 878.5 479.2L900 495L900 601L878.5 601C857 601 814 601 771.2 601C728.3 601 685.7 601 642.8 601C600 601 557 601 514.2 601C471.3 601 428.7 601 385.8 601C343 601 300 601 257.2 601C214.3 601 171.7 601 128.8 601C86 601 43 601 21.5 601L0 601Z" fill="#0066FF" stroke-linecap="round" stroke-linejoin="miter"></path></svg>