<svg id="visual" viewBox="0 0 900 600" width="900" height="600" xmlns="http://www.w3.org/2000/svg" xmlns:xlink="http://www.w3.org/1999/xlink" version="1.1"><path d="M0 415L21.5 430.7C43 446.3 86 477.7 128.8 486.3C171.7 495 214.3 481 257.2 481.5C300 482 343 497 385.8 497C428.7 497 471.3 482 514.2 470.2C557 458.3 600 449.7 642.8 442.8C685.7 436 728.3 431 771.2 439.7C814 448.3 857 470.7 878.5 481.8L900 493L900 601L878.5 601C857 601 814 601 771.2 601C728.3 601 685.7 601 642.8 601C600 601 557 601 514.2 601C471.3 601 428.7 601 385.8 601C343 601 300 601 257.2 601C214.3 601 171.7 601 128.8 601C86 601 43 601 21.5 601L0 601Z" fill="#0066FF" stroke-linecap="round" stroke-linejoin="miter"></path></svg>