<svg id="visual" viewBox="0 0 900 600" width="900" height="600" xmlns="http://www.w3.org/2000/svg" xmlns:xlink="http://www.w3.org/1999/xlink" version="1.1"><path d="M0 492L21.5 496.7C43 501.3 86 510.7 128.8 493.2C171.7 475.7 214.3 431.3 257.2 428.8C300 426.3 343 465.7 385.8 477.7C428.7 489.7 471.3 474.3 514.2 454.5C557 434.7 600 410.3 642.8 405.2C685.7 400 728.3 414 771.2 424.2C814 434.3 857 440.7 878.5 443.8L900 447L900 601L878.5 601C857 601 814 601 771.2 601C728.3 601 685.7 601 642.8 601C600 601 557 601 514.2 601C471.3 601 428.7 601 385.8 601C343 601 300 601 257.2 601C214.3 601 171.7 601 128.8 601C86 601 43 601 21.5 601L0 601Z" fill="#0066FF" stroke-linecap="round" stroke-linejoin="miter"></path></svg>