<svg width="58" height="68" viewBox="0 0 58 68" fill="none" xmlns="http://www.w3.org/2000/svg">
<path d="M57.11 9.94829V46.7938H50.8463V9.94829H57.11ZM51.7674 2.21073V5.00485H50.877V7.3384H57.2021V5.00485H53.579V3.22398C53.538 2.6713 53.8041 2.40519 54.3773 2.42566H57.2021V0H53.1184C52.2996 0.75738 51.8493 1.49429 51.7674 2.21073Z" fill="#E5E5E5"/>
<path d="M46.5784 22.2002V42.7723C46.5989 43.1817 46.6091 43.5808 46.6091 43.9697C46.6091 51.9734 43.1599 55.9752 36.2616 55.9752H35.4326V49.7115C38.8101 49.691 40.4886 47.3473 40.4682 42.6802V22.2002H46.5784Z" fill="#E5E5E5"/>
<path d="M33.8359 46.7942H27.5722V9.94873H33.8359V46.7942Z" fill="#E5E5E5"/>
<path d="M15.3825 28.4937C13.5607 28.5961 12.5782 29.4046 12.4349 30.9194V46.3945H14.6149C16.6414 46.3126 17.6035 45.4529 17.5011 43.8153V28.4937H15.3825ZM5.9255 31.5335C6.56006 25.5154 10.3879 22.4142 17.409 22.23H23.8877V41.2361C23.8877 49.5264 20.0701 53.4258 12.4349 52.9346C11.698 61.1839 8.3921 65.3085 2.51729 65.3085H0.797836V58.7377C4.17534 58.7173 5.85386 56.4758 5.83339 52.0134V31.5335H5.9255Z" fill="#E5E5E5"/>
<path d="M28.3598 58.5737C28.8652 58.2521 29.4481 58.0913 30.1085 58.0913C30.2578 58.0913 30.3898 58.0999 30.5047 58.1172C30.6195 58.1286 30.72 58.1516 30.8062 58.1861C31.0818 58.2779 31.2196 58.3784 31.2196 58.4875C31.2196 58.6426 31.0273 58.7287 30.6425 58.746C30.4415 58.7517 30.229 58.7603 30.0051 58.7718C29.7811 58.7775 29.5629 58.8149 29.3504 58.8838C29.1494 58.9412 28.9111 59.0762 28.6355 59.2886C28.5953 59.3059 28.5551 59.3174 28.5149 59.3231C28.4804 59.3288 28.446 59.3317 28.4115 59.3317C28.1474 59.3317 28.0153 59.2283 28.0153 59.0216C28.0153 58.8723 28.1301 58.723 28.3598 58.5737ZM29.9189 61.7005C30.1889 61.8728 30.2578 62.2604 30.1257 62.8634C29.7639 64.0981 29.0403 64.7355 27.955 64.7757V64.009C28.7647 63.9861 29.1983 63.4204 29.2557 62.3121C29.3188 61.824 29.5399 61.6201 29.9189 61.7005Z" fill="#E5E5E5"/>
<path d="M27.9977 64.7927C27.5326 64.7639 27.1995 64.6836 26.9985 64.5515C26.7975 64.4194 26.6683 64.2643 26.6109 64.0863C26.5592 63.9026 26.5018 63.8767 26.4386 64.0088C26.3754 64.1351 26.2807 64.2529 26.1543 64.362C26.028 64.4653 25.8902 64.5515 25.7409 64.6204C25.5973 64.6893 25.3159 64.7467 24.8967 64.7927V64.0002C25.1494 64.0174 25.3733 63.9542 25.5686 63.8107C25.7696 63.6614 25.8988 63.5092 25.9562 63.3541C26.0136 63.1991 26.0682 63.0354 26.1199 62.8632C26.1716 62.6909 26.2319 62.5502 26.3008 62.4411C26.3754 62.332 26.4845 62.2717 26.6281 62.2602C26.7774 62.243 26.8808 62.2975 26.9382 62.4238C27.0014 62.5444 27.033 62.6909 27.033 62.8632C27.0387 63.0354 27.0617 63.1905 27.1019 63.3283C27.1421 63.4604 27.188 63.5695 27.2397 63.6556C27.2971 63.7418 27.4062 63.8222 27.567 63.8968C27.7278 63.9715 27.8714 64.0031 27.9977 63.9916V64.7927ZM24.1042 66.7394C23.8918 66.8772 23.7855 67.0179 23.7855 67.1615C23.7855 67.3567 23.9119 67.4802 24.1645 67.5319C24.1932 67.5319 24.2248 67.529 24.2593 67.5233C24.2937 67.5175 24.3311 67.506 24.3713 67.4888C24.6239 67.2878 24.845 67.1615 25.0345 67.1098C25.2298 67.0466 25.4308 67.0093 25.6375 66.9978C25.8442 66.9921 26.0424 66.9863 26.2319 66.9806C26.5822 66.9117 26.7573 66.8026 26.7573 66.6533C26.7573 66.5499 26.6281 66.4551 26.3697 66.369C26.295 66.3403 26.2031 66.3173 26.094 66.3001C25.9849 66.2886 25.8615 66.2829 25.7236 66.2829C25.1149 66.2829 24.5751 66.435 24.1042 66.7394Z" fill="#E5E5E5"/>
<path d="M23.5788 61.821C23.8889 62.0852 24.0899 62.5216 24.1817 63.1304C24.2794 63.7333 24.5349 64.0205 24.9484 63.9917V64.7928C24.1214 64.7469 23.6132 64.3851 23.4237 63.7075C23.24 63.0241 22.9844 62.7944 22.6571 63.0184C22.3298 63.2423 21.3851 63.8022 19.8231 64.6981C18.2669 65.5882 16.6934 65.8638 15.1027 65.525C13.512 65.1862 12.3606 64.3937 11.6486 63.1476L11.416 62.6566C11.2667 62.3006 11.37 62.2403 11.7261 62.4757C13.0411 63.8367 14.5457 64.5229 16.2397 64.5344C17.9338 64.5459 19.5044 64.0319 20.9515 62.9925C22.3987 61.9474 23.2744 61.5569 23.5788 61.821ZM28.5662 48.0905C28.8935 47.7115 29.0658 47.7661 29.083 48.2542C28.882 48.7136 28.6839 49.107 28.4887 49.4343C28.2934 49.7616 28.0465 50.1492 27.7479 50.5972C27.455 51.0393 27.0329 51.6394 26.4816 52.3975C25.9304 53.1555 24.9398 54.4562 23.5099 56.2996C22.0857 58.1372 20.8022 59.9375 19.6595 61.7005C19.5561 61.7406 19.5101 61.6947 19.5216 61.5626C19.3551 61.0056 19.7657 60.0064 20.7534 58.565C21.7411 57.1179 22.7662 55.7339 23.8286 54.4131C24.8909 53.0866 25.8557 51.8203 26.7228 50.6144C27.5957 49.4027 28.2102 48.5614 28.5662 48.0905Z" fill="#E5E5E5"/>
</svg>
